<mxfile host="app.diagrams.net" modified="2024-02-04T06:46:45.265Z" agent="Mozilla/5.0 (Windows NT 10.0; Win64; x64) AppleWebKit/537.36 (KHTML, like Gecko) Chrome/120.0.0.0 Safari/537.36" etag="DfEM5j7T0lGd-ef0I6gU" version="23.1.1" type="github">
  <diagram name="第 1 页" id="_IAX3RjcnuZSPw6MRS_n">
    <mxGraphModel dx="1434" dy="746" grid="1" gridSize="10" guides="1" tooltips="1" connect="1" arrows="1" fold="1" page="1" pageScale="1" pageWidth="4681" pageHeight="3300" math="0" shadow="0">
      <root>
        <mxCell id="0" />
        <mxCell id="1" parent="0" />
        <mxCell id="ggBCpc5UuF6ly49hx84A-1" value="AbstractRedisAsyncCommands" style="rounded=0;whiteSpace=wrap;html=1;" vertex="1" parent="1">
          <mxGeometry x="170" y="150" width="280" height="40" as="geometry" />
        </mxCell>
        <mxCell id="ggBCpc5UuF6ly49hx84A-2" value="AsyncCommand执行 set命令" style="text;html=1;align=center;verticalAlign=middle;resizable=0;points=[];autosize=1;strokeColor=none;fillColor=none;" vertex="1" parent="1">
          <mxGeometry x="110" y="90" width="180" height="30" as="geometry" />
        </mxCell>
        <mxCell id="ggBCpc5UuF6ly49hx84A-4" value="set" style="whiteSpace=wrap;html=1;" vertex="1" parent="1">
          <mxGeometry x="235" y="220" width="150" height="30" as="geometry" />
        </mxCell>
        <mxCell id="ggBCpc5UuF6ly49hx84A-5" value="dispatch" style="whiteSpace=wrap;html=1;" vertex="1" parent="1">
          <mxGeometry x="232.5" y="280" width="155" height="30" as="geometry" />
        </mxCell>
        <mxCell id="ggBCpc5UuF6ly49hx84A-6" value="将命令封装成&lt;br&gt;Command对象" style="text;html=1;align=center;verticalAlign=middle;resizable=0;points=[];autosize=1;strokeColor=none;fillColor=none;" vertex="1" parent="1">
          <mxGeometry x="100" y="250" width="100" height="40" as="geometry" />
        </mxCell>
        <mxCell id="ggBCpc5UuF6ly49hx84A-7" value="将cmd包装成&lt;br style=&quot;border-color: var(--border-color);&quot;&gt;AsyncCommand" style="whiteSpace=wrap;html=1;" vertex="1" parent="1">
          <mxGeometry x="242.5" y="340" width="135" height="30" as="geometry" />
        </mxCell>
        <mxCell id="ggBCpc5UuF6ly49hx84A-8" value="connection.&lt;br&gt;dispatch(cmd)" style="whiteSpace=wrap;html=1;" vertex="1" parent="1">
          <mxGeometry x="245" y="390" width="130" height="30" as="geometry" />
        </mxCell>
      </root>
    </mxGraphModel>
  </diagram>
</mxfile>
